<?xml version="1.0" encoding="UTF-8" standalone="no"?>
<svg
   height="512px"
   style="enable-background:new 0 0 512 512;"
   version="1.1"
   viewBox="0 0 512 512"
   width="512px"
   xml:space="preserve"
   id="svg10"
   sodipodi:docname="hulldown.svg"
   inkscape:version="1.2 (dc2aedaf03, 2022-05-15)"
   xmlns:inkscape="http://www.inkscape.org/namespaces/inkscape"
   xmlns:sodipodi="http://sodipodi.sourceforge.net/DTD/sodipodi-0.dtd"
   xmlns="http://www.w3.org/2000/svg"
   xmlns:svg="http://www.w3.org/2000/svg"><defs
     id="defs14" /><sodipodi:namedview
     id="namedview12"
     pagecolor="#505050"
     bordercolor="#ffffff"
     borderopacity="1"
     inkscape:showpageshadow="0"
     inkscape:pageopacity="0"
     inkscape:pagecheckerboard="1"
     inkscape:deskcolor="#505050"
     showgrid="false"
     inkscape:zoom="1.6347656"
     inkscape:cx="256.61171"
     inkscape:cy="256.30585"
     inkscape:window-width="1920"
     inkscape:window-height="1017"
     inkscape:window-x="1912"
     inkscape:window-y="-8"
     inkscape:window-maximized="1"
     inkscape:current-layer="svg10" /><g
     id="D_-_32_x2C__sheild_x2C__protection_x2C__locked_x2C__protect"
     style="fill:#ffffff"><g
       id="g6"
       style="fill:#ffffff"><path
         d="M321.755,106.652H199.934c-22.264,38.214-56.358,54.222-84.834,63.573c22.157,97.572,69.487,175.329,140.752,231.346    l-3.942-243.303c-0.042-2.587,2.021-4.719,4.609-4.761c2.556-0.073,4.718,2.021,4.76,4.609l3.949,243.673    c66.553-52.628,110.319-128.486,133.55-231.489C363.689,159.202,337.806,137.812,321.755,106.652z"
         id="path2"
         style="fill:#ffffff" /><path
         d="M350.477,41.056H174.594c-14.484,24.974-36.162,46.086-64.473,62.782c-23.509,13.863-47.745,22.681-68.826,29.416    C72.34,270.899,146.13,384.474,260.691,470.944c107.255-81.134,177.893-194.687,210.014-337.613    C415.638,116.508,372.135,83.13,350.477,41.056z M307.549,55.112h18.742v18.742h-18.742V55.112z M270.064,55.112h18.742v18.742    h-18.742V55.112z M232.581,55.112h18.742v18.742h-18.742V55.112z M195.097,55.112h18.742v18.742h-18.742V55.112z M352.161,316.422    c-23.667,39.126-53.497,72.279-88.665,98.54c-0.021,0.016-0.043,0.026-0.064,0.041c-0.081,0.06-0.17,0.106-0.256,0.161    c-0.154,0.097-0.311,0.189-0.473,0.267c-0.098,0.046-0.197,0.085-0.297,0.125c-0.172,0.066-0.344,0.124-0.52,0.17    c-0.099,0.025-0.194,0.052-0.295,0.071c-0.229,0.045-0.458,0.07-0.688,0.08c-0.046,0.002-0.088,0.015-0.134,0.016    c-0.024,0.001-0.051,0.001-0.076,0.001l0,0l0,0c0,0,0,0-0.002,0s-0.004-0.001-0.007-0.001c-0.28,0-0.558-0.032-0.835-0.083    c-0.098-0.018-0.189-0.045-0.286-0.068c-0.176-0.044-0.35-0.096-0.521-0.16c-0.103-0.039-0.202-0.081-0.303-0.126    c-0.156-0.073-0.307-0.155-0.456-0.246c-0.093-0.056-0.187-0.109-0.274-0.172c-0.039-0.026-0.082-0.046-0.119-0.074    c-78.436-58.561-129.869-141.628-152.872-246.893c-0.518-2.371,0.86-4.745,3.176-5.471c29.907-9.375,63.385-24.181,84.919-62.91    c0.827-1.486,2.394-2.409,4.095-2.409h127.437c1.789,0,3.423,1.02,4.209,2.627c15.335,31.363,41.15,52.444,76.731,62.658    c2.374,0.682,3.812,3.09,3.284,5.503C396.478,224.79,377.396,274.701,352.161,316.422z"
         id="path4"
         style="fill:#ffffff" /></g></g><g
     id="Layer_1" /></svg>
